<svg width="258" height="258" viewBox="0 0 258 258" fill="none" xmlns="http://www.w3.org/2000/svg">
<g clip-path="url(#clip0_3312_851)">
<path d="M258 0H0V258H258V0Z" fill="white"/>
<path d="M10 1H1V10H10V1Z" fill="black"/>
<path d="M19 1H10V10H19V1Z" fill="black"/>
<path d="M28 1H19V10H28V1Z" fill="black"/>
<path d="M37 1H28V10H37V1Z" fill="black"/>
<path d="M46 1H37V10H46V1Z" fill="black"/>
<path d="M55 1H46V10H55V1Z" fill="black"/>
<path d="M63 1H54V10H63V1Z" fill="black"/>
<path d="M72 1H63V10H72V1Z" fill="white"/>
<path d="M81 1H72V10H81V1Z" fill="white"/>
<path d="M90 1H81V10H90V1Z" fill="black"/>
<path d="M99 1H90V10H99V1Z" fill="white"/>
<path d="M108 1H99V10H108V1Z" fill="black"/>
<path d="M116 1H107V10H116V1Z" fill="white"/>
<path d="M125 1H116V10H125V1Z" fill="black"/>
<path d="M134 1H125V10H134V1Z" fill="white"/>
<path d="M143 1H134V10H143V1Z" fill="black"/>
<path d="M152 1H143V10H152V1Z" fill="black"/>
<path d="M161 1H152V10H161V1Z" fill="black"/>
<path d="M169 1H160V10H169V1Z" fill="black"/>
<path d="M178 1H169V10H178V1Z" fill="white"/>
<path d="M187 1H178V10H187V1Z" fill="black"/>
<path d="M196 1H187V10H196V1Z" fill="white"/>
<path d="M205 1H196V10H205V1Z" fill="black"/>
<path d="M214 1H205V10H214V1Z" fill="black"/>
<path d="M222 1H213V10H222V1Z" fill="black"/>
<path d="M231 1H222V10H231V1Z" fill="black"/>
<path d="M240 1H231V10H240V1Z" fill="black"/>
<path d="M249 1H240V10H249V1Z" fill="black"/>
<path d="M258 1H249V10H258V1Z" fill="black"/>
<path d="M10 10H1V19H10V10Z" fill="black"/>
<path d="M19 10H10V19H19V10Z" fill="white"/>
<path d="M28 10H19V19H28V10Z" fill="white"/>
<path d="M37 10H28V19H37V10Z" fill="white"/>
<path d="M46 10H37V19H46V10Z" fill="white"/>
<path d="M55 10H46V19H55V10Z" fill="white"/>
<path d="M63 10H54V19H63V10Z" fill="black"/>
<path d="M72 10H63V19H72V10Z" fill="white"/>
<path d="M81 10H72V19H81V10Z" fill="white"/>
<path d="M90 10H81V19H90V10Z" fill="black"/>
<path d="M99 10H90V19H99V10Z" fill="black"/>
<path d="M108 10H99V19H108V10Z" fill="white"/>
<path d="M116 10H107V19H116V10Z" fill="black"/>
<path d="M125 10H116V19H125V10Z" fill="black"/>
<path d="M134 10H125V19H134V10Z" fill="white"/>
<path d="M143 10H134V19H143V10Z" fill="black"/>
<path d="M152 10H143V19H152V10Z" fill="white"/>
<path d="M161 10H152V19H161V10Z" fill="black"/>
<path d="M169 10H160V19H169V10Z" fill="black"/>
<path d="M178 10H169V19H178V10Z" fill="black"/>
<path d="M187 10H178V19H187V10Z" fill="black"/>
<path d="M196 10H187V19H196V10Z" fill="white"/>
<path d="M205 10H196V19H205V10Z" fill="black"/>
<path d="M214 10H205V19H214V10Z" fill="white"/>
<path d="M222 10H213V19H222V10Z" fill="white"/>
<path d="M231 10H222V19H231V10Z" fill="white"/>
<path d="M240 10H231V19H240V10Z" fill="white"/>
<path d="M249 10H240V19H249V10Z" fill="white"/>
<path d="M258 10H249V19H258V10Z" fill="black"/>
<path d="M10 19H1V28H10V19Z" fill="black"/>
<path d="M19 19H10V28H19V19Z" fill="white"/>
<path d="M28 19H19V28H28V19Z" fill="black"/>
<path d="M37 19H28V28H37V19Z" fill="black"/>
<path d="M46 19H37V28H46V19Z" fill="black"/>
<path d="M55 19H46V28H55V19Z" fill="white"/>
<path d="M63 19H54V28H63V19Z" fill="black"/>
<path d="M72 19H63V28H72V19Z" fill="white"/>
<path d="M81 19H72V28H81V19Z" fill="white"/>
<path d="M90 19H81V28H90V19Z" fill="black"/>
<path d="M99 19H90V28H99V19Z" fill="black"/>
<path d="M108 19H99V28H108V19Z" fill="black"/>
<path d="M116 19H107V28H116V19Z" fill="white"/>
<path d="M125 19H116V28H125V19Z" fill="white"/>
<path d="M134 19H125V28H134V19Z" fill="black"/>
<path d="M143 19H134V28H143V19Z" fill="white"/>
<path d="M152 19H143V28H152V19Z" fill="white"/>
<path d="M161 19H152V28H161V19Z" fill="white"/>
<path d="M169 19H160V28H169V19Z" fill="black"/>
<path d="M178 19H169V28H178V19Z" fill="white"/>
<path d="M187 19H178V28H187V19Z" fill="black"/>
<path d="M196 19H187V28H196V19Z" fill="white"/>
<path d="M205 19H196V28H205V19Z" fill="black"/>
<path d="M214 19H205V28H214V19Z" fill="white"/>
<path d="M222 19H213V28H222V19Z" fill="black"/>
<path d="M231 19H222V28H231V19Z" fill="black"/>
<path d="M240 19H231V28H240V19Z" fill="black"/>
<path d="M249 19H240V28H249V19Z" fill="white"/>
<path d="M258 19H249V28H258V19Z" fill="black"/>
<path d="M10 28H1V37H10V28Z" fill="black"/>
<path d="M19 28H10V37H19V28Z" fill="white"/>
<path d="M28 28H19V37H28V28Z" fill="black"/>
<path d="M37 28H28V37H37V28Z" fill="black"/>
<path d="M46 28H37V37H46V28Z" fill="black"/>
<path d="M55 28H46V37H55V28Z" fill="white"/>
<path d="M63 28H54V37H63V28Z" fill="black"/>
<path d="M72 28H63V37H72V28Z" fill="white"/>
<path d="M81 28H72V37H81V28Z" fill="white"/>
<path d="M90 28H81V37H90V28Z" fill="white"/>
<path d="M99 28H90V37H99V28Z" fill="white"/>
<path d="M108 28H99V37H108V28Z" fill="black"/>
<path d="M116 28H107V37H116V28Z" fill="black"/>
<path d="M125 28H116V37H125V28Z" fill="black"/>
<path d="M134 28H125V37H134V28Z" fill="black"/>
<path d="M143 28H134V37H143V28Z" fill="white"/>
<path d="M152 28H143V37H152V28Z" fill="white"/>
<path d="M161 28H152V37H161V28Z" fill="black"/>
<path d="M169 28H160V37H169V28Z" fill="white"/>
<path d="M178 28H169V37H178V28Z" fill="black"/>
<path d="M187 28H178V37H187V28Z" fill="white"/>
<path d="M196 28H187V37H196V28Z" fill="white"/>
<path d="M205 28H196V37H205V28Z" fill="black"/>
<path d="M214 28H205V37H214V28Z" fill="white"/>
<path d="M222 28H213V37H222V28Z" fill="black"/>
<path d="M231 28H222V37H231V28Z" fill="black"/>
<path d="M240 28H231V37H240V28Z" fill="black"/>
<path d="M249 28H240V37H249V28Z" fill="white"/>
<path d="M258 28H249V37H258V28Z" fill="black"/>
<path d="M10 37H1V46H10V37Z" fill="black"/>
<path d="M19 37H10V46H19V37Z" fill="white"/>
<path d="M28 37H19V46H28V37Z" fill="black"/>
<path d="M37 37H28V46H37V37Z" fill="black"/>
<path d="M46 37H37V46H46V37Z" fill="black"/>
<path d="M55 37H46V46H55V37Z" fill="white"/>
<path d="M63 37H54V46H63V37Z" fill="black"/>
<path d="M72 37H63V46H72V37Z" fill="white"/>
<path d="M81 37H72V46H81V37Z" fill="black"/>
<path d="M90 37H81V46H90V37Z" fill="white"/>
<path d="M99 37H90V46H99V37Z" fill="black"/>
<path d="M108 37H99V46H108V37Z" fill="black"/>
<path d="M116 37H107V46H116V37Z" fill="black"/>
<path d="M125 37H116V46H125V37Z" fill="white"/>
<path d="M134 37H125V46H134V37Z" fill="white"/>
<path d="M143 37H134V46H143V37Z" fill="white"/>
<path d="M152 37H143V46H152V37Z" fill="white"/>
<path d="M161 37H152V46H161V37Z" fill="black"/>
<path d="M169 37H160V46H169V37Z" fill="black"/>
<path d="M178 37H169V46H178V37Z" fill="black"/>
<path d="M187 37H178V46H187V37Z" fill="black"/>
<path d="M196 37H187V46H196V37Z" fill="white"/>
<path d="M205 37H196V46H205V37Z" fill="black"/>
<path d="M214 37H205V46H214V37Z" fill="white"/>
<path d="M222 37H213V46H222V37Z" fill="black"/>
<path d="M231 37H222V46H231V37Z" fill="black"/>
<path d="M240 37H231V46H240V37Z" fill="black"/>
<path d="M249 37H240V46H249V37Z" fill="white"/>
<path d="M258 37H249V46H258V37Z" fill="black"/>
<path d="M10 46H1V55H10V46Z" fill="black"/>
<path d="M19 46H10V55H19V46Z" fill="white"/>
<path d="M28 46H19V55H28V46Z" fill="white"/>
<path d="M37 46H28V55H37V46Z" fill="white"/>
<path d="M46 46H37V55H46V46Z" fill="white"/>
<path d="M55 46H46V55H55V46Z" fill="white"/>
<path d="M63 46H54V55H63V46Z" fill="black"/>
<path d="M72 46H63V55H72V46Z" fill="white"/>
<path d="M81 46H72V55H81V46Z" fill="white"/>
<path d="M90 46H81V55H90V46Z" fill="white"/>
<path d="M99 46H90V55H99V46Z" fill="black"/>
<path d="M108 46H99V55H108V46Z" fill="black"/>
<path d="M116 46H107V55H116V46Z" fill="white"/>
<path d="M125 46H116V55H125V46Z" fill="black"/>
<path d="M134 46H125V55H134V46Z" fill="black"/>
<path d="M143 46H134V55H143V46Z" fill="white"/>
<path d="M152 46H143V55H152V46Z" fill="black"/>
<path d="M161 46H152V55H161V46Z" fill="white"/>
<path d="M169 46H160V55H169V46Z" fill="white"/>
<path d="M178 46H169V55H178V46Z" fill="black"/>
<path d="M187 46H178V55H187V46Z" fill="white"/>
<path d="M196 46H187V55H196V46Z" fill="white"/>
<path d="M205 46H196V55H205V46Z" fill="black"/>
<path d="M214 46H205V55H214V46Z" fill="white"/>
<path d="M222 46H213V55H222V46Z" fill="white"/>
<path d="M231 46H222V55H231V46Z" fill="white"/>
<path d="M240 46H231V55H240V46Z" fill="white"/>
<path d="M249 46H240V55H249V46Z" fill="white"/>
<path d="M258 46H249V55H258V46Z" fill="black"/>
<path d="M10 54H1V63H10V54Z" fill="black"/>
<path d="M19 54H10V63H19V54Z" fill="black"/>
<path d="M28 54H19V63H28V54Z" fill="black"/>
<path d="M37 54H28V63H37V54Z" fill="black"/>
<path d="M46 54H37V63H46V54Z" fill="black"/>
<path d="M55 54H46V63H55V54Z" fill="black"/>
<path d="M63 54H54V63H63V54Z" fill="black"/>
<path d="M72 54H63V63H72V54Z" fill="white"/>
<path d="M81 54H72V63H81V54Z" fill="black"/>
<path d="M90 54H81V63H90V54Z" fill="white"/>
<path d="M99 54H90V63H99V54Z" fill="black"/>
<path d="M108 54H99V63H108V54Z" fill="white"/>
<path d="M116 54H107V63H116V54Z" fill="black"/>
<path d="M125 54H116V63H125V54Z" fill="white"/>
<path d="M134 54H125V63H134V54Z" fill="black"/>
<path d="M143 54H134V63H143V54Z" fill="white"/>
<path d="M152 54H143V63H152V54Z" fill="black"/>
<path d="M161 54H152V63H161V54Z" fill="white"/>
<path d="M169 54H160V63H169V54Z" fill="black"/>
<path d="M178 54H169V63H178V54Z" fill="white"/>
<path d="M187 54H178V63H187V54Z" fill="black"/>
<path d="M196 54H187V63H196V54Z" fill="white"/>
<path d="M205 54H196V63H205V54Z" fill="black"/>
<path d="M214 54H205V63H214V54Z" fill="black"/>
<path d="M222 54H213V63H222V54Z" fill="black"/>
<path d="M231 54H222V63H231V54Z" fill="black"/>
<path d="M240 54H231V63H240V54Z" fill="black"/>
<path d="M249 54H240V63H249V54Z" fill="black"/>
<path d="M258 54H249V63H258V54Z" fill="black"/>
<path d="M10 63H1V72H10V63Z" fill="white"/>
<path d="M19 63H10V72H19V63Z" fill="white"/>
<path d="M28 63H19V72H28V63Z" fill="white"/>
<path d="M37 63H28V72H37V63Z" fill="white"/>
<path d="M46 63H37V72H46V63Z" fill="white"/>
<path d="M55 63H46V72H55V63Z" fill="white"/>
<path d="M63 63H54V72H63V63Z" fill="white"/>
<path d="M72 63H63V72H72V63Z" fill="white"/>
<path d="M81 63H72V72H81V63Z" fill="black"/>
<path d="M90 63H81V72H90V63Z" fill="black"/>
<path d="M99 63H90V72H99V63Z" fill="white"/>
<path d="M108 63H99V72H108V63Z" fill="white"/>
<path d="M116 63H107V72H116V63Z" fill="white"/>
<path d="M125 63H116V72H125V63Z" fill="black"/>
<path d="M134 63H125V72H134V63Z" fill="black"/>
<path d="M143 63H134V72H143V63Z" fill="white"/>
<path d="M152 63H143V72H152V63Z" fill="white"/>
<path d="M161 63H152V72H161V63Z" fill="black"/>
<path d="M169 63H160V72H169V63Z" fill="black"/>
<path d="M178 63H169V72H178V63Z" fill="white"/>
<path d="M187 63H178V72H187V63Z" fill="white"/>
<path d="M196 63H187V72H196V63Z" fill="white"/>
<path d="M205 63H196V72H205V63Z" fill="white"/>
<path d="M214 63H205V72H214V63Z" fill="white"/>
<path d="M222 63H213V72H222V63Z" fill="white"/>
<path d="M231 63H222V72H231V63Z" fill="white"/>
<path d="M240 63H231V72H240V63Z" fill="white"/>
<path d="M249 63H240V72H249V63Z" fill="white"/>
<path d="M258 63H249V72H258V63Z" fill="white"/>
<path d="M10 72H1V81H10V72Z" fill="white"/>
<path d="M19 72H10V81H19V72Z" fill="white"/>
<path d="M28 72H19V81H28V72Z" fill="black"/>
<path d="M37 72H28V81H37V72Z" fill="black"/>
<path d="M46 72H37V81H46V72Z" fill="white"/>
<path d="M55 72H46V81H55V72Z" fill="white"/>
<path d="M63 72H54V81H63V72Z" fill="black"/>
<path d="M72 72H63V81H72V72Z" fill="black"/>
<path d="M81 72H72V81H81V72Z" fill="black"/>
<path d="M90 72H81V81H90V72Z" fill="black"/>
<path d="M99 72H90V81H99V72Z" fill="white"/>
<path d="M108 72H99V81H108V72Z" fill="black"/>
<path d="M116 72H107V81H116V72Z" fill="black"/>
<path d="M125 72H116V81H125V72Z" fill="black"/>
<path d="M134 72H125V81H134V72Z" fill="white"/>
<path d="M143 72H134V81H143V72Z" fill="black"/>
<path d="M152 72H143V81H152V72Z" fill="white"/>
<path d="M161 72H152V81H161V72Z" fill="white"/>
<path d="M169 72H160V81H169V72Z" fill="white"/>
<path d="M178 72H169V81H178V72Z" fill="black"/>
<path d="M187 72H178V81H187V72Z" fill="black"/>
<path d="M196 72H187V81H196V72Z" fill="black"/>
<path d="M205 72H196V81H205V72Z" fill="black"/>
<path d="M214 72H205V81H214V72Z" fill="white"/>
<path d="M222 72H213V81H222V72Z" fill="black"/>
<path d="M231 72H222V81H231V72Z" fill="white"/>
<path d="M240 72H231V81H240V72Z" fill="white"/>
<path d="M249 72H240V81H249V72Z" fill="white"/>
<path d="M258 72H249V81H258V72Z" fill="white"/>
<path d="M10 81H1V90H10V81Z" fill="white"/>
<path d="M19 81H10V90H19V81Z" fill="white"/>
<path d="M28 81H19V90H28V81Z" fill="black"/>
<path d="M37 81H28V90H37V81Z" fill="white"/>
<path d="M46 81H37V90H46V81Z" fill="white"/>
<path d="M55 81H46V90H55V81Z" fill="black"/>
<path d="M63 81H54V90H63V81Z" fill="white"/>
<path d="M72 81H63V90H72V81Z" fill="white"/>
<path d="M81 81H72V90H81V81Z" fill="white"/>
<path d="M90 81H81V90H90V81Z" fill="white"/>
<path d="M99 81H90V90H99V81Z" fill="white"/>
<path d="M108 81H99V90H108V81Z" fill="white"/>
<path d="M116 81H107V90H116V81Z" fill="black"/>
<path d="M125 81H116V90H125V81Z" fill="black"/>
<path d="M134 81H125V90H134V81Z" fill="white"/>
<path d="M143 81H134V90H143V81Z" fill="black"/>
<path d="M152 81H143V90H152V81Z" fill="white"/>
<path d="M161 81H152V90H161V81Z" fill="white"/>
<path d="M169 81H160V90H169V81Z" fill="white"/>
<path d="M178 81H169V90H178V81Z" fill="white"/>
<path d="M187 81H178V90H187V81Z" fill="white"/>
<path d="M196 81H187V90H196V81Z" fill="black"/>
<path d="M205 81H196V90H205V81Z" fill="white"/>
<path d="M214 81H205V90H214V81Z" fill="white"/>
<path d="M222 81H213V90H222V81Z" fill="black"/>
<path d="M231 81H222V90H231V81Z" fill="black"/>
<path d="M240 81H231V90H240V81Z" fill="black"/>
<path d="M249 81H240V90H249V81Z" fill="white"/>
<path d="M258 81H249V90H258V81Z" fill="black"/>
<path d="M10 90H1V99H10V90Z" fill="black"/>
<path d="M19 90H10V99H19V90Z" fill="black"/>
<path d="M28 90H19V99H28V90Z" fill="white"/>
<path d="M37 90H28V99H37V90Z" fill="white"/>
<path d="M46 90H37V99H46V90Z" fill="black"/>
<path d="M55 90H46V99H55V90Z" fill="white"/>
<path d="M63 90H54V99H63V90Z" fill="black"/>
<path d="M72 90H63V99H72V90Z" fill="white"/>
<path d="M81 90H72V99H81V90Z" fill="black"/>
<path d="M90 90H81V99H90V90Z" fill="white"/>
<path d="M99 90H90V99H99V90Z" fill="black"/>
<path d="M108 90H99V99H108V90Z" fill="white"/>
<path d="M116 90H107V99H116V90Z" fill="black"/>
<path d="M125 90H116V99H125V90Z" fill="white"/>
<path d="M134 90H125V99H134V90Z" fill="black"/>
<path d="M143 90H134V99H143V90Z" fill="white"/>
<path d="M152 90H143V99H152V90Z" fill="black"/>
<path d="M161 90H152V99H161V90Z" fill="black"/>
<path d="M169 90H160V99H169V90Z" fill="black"/>
<path d="M178 90H169V99H178V90Z" fill="white"/>
<path d="M187 90H178V99H187V90Z" fill="white"/>
<path d="M196 90H187V99H196V90Z" fill="white"/>
<path d="M205 90H196V99H205V90Z" fill="black"/>
<path d="M214 90H205V99H214V90Z" fill="white"/>
<path d="M222 90H213V99H222V90Z" fill="white"/>
<path d="M231 90H222V99H231V90Z" fill="white"/>
<path d="M240 90H231V99H240V90Z" fill="white"/>
<path d="M249 90H240V99H249V90Z" fill="black"/>
<path d="M258 90H249V99H258V90Z" fill="white"/>
<path d="M10 99H1V108H10V99Z" fill="black"/>
<path d="M19 99H10V108H19V99Z" fill="white"/>
<path d="M28 99H19V108H28V99Z" fill="black"/>
<path d="M37 99H28V108H37V99Z" fill="white"/>
<path d="M46 99H37V108H46V99Z" fill="white"/>
<path d="M55 99H46V108H55V99Z" fill="black"/>
<path d="M63 99H54V108H63V99Z" fill="white"/>
<path d="M72 99H63V108H72V99Z" fill="white"/>
<path d="M81 99H72V108H81V99Z" fill="white"/>
<path d="M90 99H81V108H90V99Z" fill="black"/>
<path d="M99 99H90V108H99V99Z" fill="white"/>
<path d="M108 99H99V108H108V99Z" fill="white"/>
<path d="M116 99H107V108H116V99Z" fill="black"/>
<path d="M125 99H116V108H125V99Z" fill="white"/>
<path d="M134 99H125V108H134V99Z" fill="black"/>
<path d="M143 99H134V108H143V99Z" fill="white"/>
<path d="M152 99H143V108H152V99Z" fill="black"/>
<path d="M161 99H152V108H161V99Z" fill="black"/>
<path d="M169 99H160V108H169V99Z" fill="black"/>
<path d="M178 99H169V108H178V99Z" fill="black"/>
<path d="M187 99H178V108H187V99Z" fill="white"/>
<path d="M196 99H187V108H196V99Z" fill="white"/>
<path d="M205 99H196V108H205V99Z" fill="white"/>
<path d="M214 99H205V108H214V99Z" fill="black"/>
<path d="M222 99H213V108H222V99Z" fill="black"/>
<path d="M231 99H222V108H231V99Z" fill="black"/>
<path d="M240 99H231V108H240V99Z" fill="white"/>
<path d="M249 99H240V108H249V99Z" fill="white"/>
<path d="M258 99H249V108H258V99Z" fill="black"/>
<path d="M10 107H1V116H10V107Z" fill="black"/>
<path d="M19 107H10V116H19V107Z" fill="black"/>
<path d="M28 107H19V116H28V107Z" fill="white"/>
<path d="M37 107H28V116H37V107Z" fill="white"/>
<path d="M46 107H37V116H46V107Z" fill="black"/>
<path d="M55 107H46V116H55V107Z" fill="white"/>
<path d="M63 107H54V116H63V107Z" fill="black"/>
<path d="M72 107H63V116H72V107Z" fill="black"/>
<path d="M81 107H72V116H81V107Z" fill="white"/>
<path d="M90 107H81V116H90V107Z" fill="white"/>
<path d="M99 107H90V116H99V107Z" fill="white"/>
<path d="M108 107H99V116H108V107Z" fill="black"/>
<path d="M116 107H107V116H116V107Z" fill="white"/>
<path d="M125 107H116V116H125V107Z" fill="black"/>
<path d="M134 107H125V116H134V107Z" fill="black"/>
<path d="M143 107H134V116H143V107Z" fill="black"/>
<path d="M152 107H143V116H152V107Z" fill="white"/>
<path d="M161 107H152V116H161V107Z" fill="white"/>
<path d="M169 107H160V116H169V107Z" fill="white"/>
<path d="M178 107H169V116H178V107Z" fill="white"/>
<path d="M187 107H178V116H187V107Z" fill="black"/>
<path d="M196 107H187V116H196V107Z" fill="black"/>
<path d="M205 107H196V116H205V107Z" fill="white"/>
<path d="M214 107H205V116H214V107Z" fill="black"/>
<path d="M222 107H213V116H222V107Z" fill="white"/>
<path d="M231 107H222V116H231V107Z" fill="white"/>
<path d="M240 107H231V116H240V107Z" fill="black"/>
<path d="M249 107H240V116H249V107Z" fill="black"/>
<path d="M258 107H249V116H258V107Z" fill="black"/>
<path d="M10 116H1V125H10V116Z" fill="white"/>
<path d="M19 116H10V125H19V116Z" fill="black"/>
<path d="M28 116H19V125H28V116Z" fill="white"/>
<path d="M37 116H28V125H37V116Z" fill="white"/>
<path d="M46 116H37V125H46V116Z" fill="black"/>
<path d="M55 116H46V125H55V116Z" fill="white"/>
<path d="M63 116H54V125H63V116Z" fill="white"/>
<path d="M72 116H63V125H72V116Z" fill="white"/>
<path d="M81 116H72V125H81V116Z" fill="white"/>
<path d="M90 116H81V125H90V116Z" fill="white"/>
<path d="M99 116H90V125H99V116Z" fill="white"/>
<path d="M108 116H99V125H108V116Z" fill="black"/>
<path d="M116 116H107V125H116V116Z" fill="black"/>
<path d="M125 116H116V125H125V116Z" fill="white"/>
<path d="M134 116H125V125H134V116Z" fill="white"/>
<path d="M143 116H134V125H143V116Z" fill="white"/>
<path d="M152 116H143V125H152V116Z" fill="white"/>
<path d="M161 116H152V125H161V116Z" fill="white"/>
<path d="M169 116H160V125H169V116Z" fill="black"/>
<path d="M178 116H169V125H178V116Z" fill="black"/>
<path d="M187 116H178V125H187V116Z" fill="white"/>
<path d="M196 116H187V125H196V116Z" fill="white"/>
<path d="M205 116H196V125H205V116Z" fill="black"/>
<path d="M214 116H205V125H214V116Z" fill="black"/>
<path d="M222 116H213V125H222V116Z" fill="white"/>
<path d="M231 116H222V125H231V116Z" fill="black"/>
<path d="M240 116H231V125H240V116Z" fill="black"/>
<path d="M249 116H240V125H249V116Z" fill="white"/>
<path d="M258 116H249V125H258V116Z" fill="black"/>
<path d="M10 125H1V134H10V125Z" fill="white"/>
<path d="M19 125H10V134H19V125Z" fill="white"/>
<path d="M28 125H19V134H28V125Z" fill="white"/>
<path d="M37 125H28V134H37V125Z" fill="white"/>
<path d="M46 125H37V134H46V125Z" fill="white"/>
<path d="M55 125H46V134H55V125Z" fill="black"/>
<path d="M63 125H54V134H63V125Z" fill="black"/>
<path d="M72 125H63V134H72V125Z" fill="black"/>
<path d="M81 125H72V134H81V125Z" fill="black"/>
<path d="M90 125H81V134H90V125Z" fill="black"/>
<path d="M99 125H90V134H99V125Z" fill="black"/>
<path d="M108 125H99V134H108V125Z" fill="black"/>
<path d="M116 125H107V134H116V125Z" fill="black"/>
<path d="M125 125H116V134H125V125Z" fill="black"/>
<path d="M134 125H125V134H134V125Z" fill="black"/>
<path d="M143 125H134V134H143V125Z" fill="black"/>
<path d="M152 125H143V134H152V125Z" fill="black"/>
<path d="M161 125H152V134H161V125Z" fill="white"/>
<path d="M169 125H160V134H169V125Z" fill="black"/>
<path d="M178 125H169V134H178V125Z" fill="black"/>
<path d="M187 125H178V134H187V125Z" fill="black"/>
<path d="M196 125H187V134H196V125Z" fill="black"/>
<path d="M205 125H196V134H205V125Z" fill="white"/>
<path d="M214 125H205V134H214V125Z" fill="black"/>
<path d="M222 125H213V134H222V125Z" fill="black"/>
<path d="M231 125H222V134H231V125Z" fill="black"/>
<path d="M240 125H231V134H240V125Z" fill="white"/>
<path d="M249 125H240V134H249V125Z" fill="black"/>
<path d="M258 125H249V134H258V125Z" fill="black"/>
<path d="M10 134H1V143H10V134Z" fill="white"/>
<path d="M19 134H10V143H19V134Z" fill="black"/>
<path d="M28 134H19V143H28V134Z" fill="white"/>
<path d="M37 134H28V143H37V134Z" fill="white"/>
<path d="M46 134H37V143H46V134Z" fill="black"/>
<path d="M55 134H46V143H55V134Z" fill="black"/>
<path d="M63 134H54V143H63V134Z" fill="white"/>
<path d="M72 134H63V143H72V134Z" fill="black"/>
<path d="M81 134H72V143H81V134Z" fill="black"/>
<path d="M90 134H81V143H90V134Z" fill="black"/>
<path d="M99 134H90V143H99V134Z" fill="white"/>
<path d="M108 134H99V143H108V134Z" fill="black"/>
<path d="M116 134H107V143H116V134Z" fill="black"/>
<path d="M125 134H116V143H125V134Z" fill="black"/>
<path d="M134 134H125V143H134V134Z" fill="white"/>
<path d="M143 134H134V143H143V134Z" fill="black"/>
<path d="M152 134H143V143H152V134Z" fill="white"/>
<path d="M161 134H152V143H161V134Z" fill="white"/>
<path d="M169 134H160V143H169V134Z" fill="white"/>
<path d="M178 134H169V143H178V134Z" fill="white"/>
<path d="M187 134H178V143H187V134Z" fill="white"/>
<path d="M196 134H187V143H196V134Z" fill="black"/>
<path d="M205 134H196V143H205V134Z" fill="black"/>
<path d="M214 134H205V143H214V134Z" fill="white"/>
<path d="M222 134H213V143H222V134Z" fill="black"/>
<path d="M231 134H222V143H231V134Z" fill="black"/>
<path d="M240 134H231V143H240V134Z" fill="white"/>
<path d="M249 134H240V143H249V134Z" fill="white"/>
<path d="M258 134H249V143H258V134Z" fill="white"/>
<path d="M10 143H1V152H10V143Z" fill="white"/>
<path d="M19 143H10V152H19V143Z" fill="white"/>
<path d="M28 143H19V152H28V143Z" fill="white"/>
<path d="M37 143H28V152H37V143Z" fill="black"/>
<path d="M46 143H37V152H46V143Z" fill="white"/>
<path d="M55 143H46V152H55V143Z" fill="white"/>
<path d="M63 143H54V152H63V143Z" fill="black"/>
<path d="M72 143H63V152H72V143Z" fill="black"/>
<path d="M81 143H72V152H81V143Z" fill="white"/>
<path d="M90 143H81V152H90V143Z" fill="white"/>
<path d="M99 143H90V152H99V143Z" fill="white"/>
<path d="M108 143H99V152H108V143Z" fill="white"/>
<path d="M116 143H107V152H116V143Z" fill="black"/>
<path d="M125 143H116V152H125V143Z" fill="white"/>
<path d="M134 143H125V152H134V143Z" fill="white"/>
<path d="M143 143H134V152H143V143Z" fill="black"/>
<path d="M152 143H143V152H152V143Z" fill="white"/>
<path d="M161 143H152V152H161V143Z" fill="white"/>
<path d="M169 143H160V152H169V143Z" fill="white"/>
<path d="M178 143H169V152H178V143Z" fill="black"/>
<path d="M187 143H178V152H187V143Z" fill="black"/>
<path d="M196 143H187V152H196V143Z" fill="black"/>
<path d="M205 143H196V152H205V143Z" fill="black"/>
<path d="M214 143H205V152H214V143Z" fill="black"/>
<path d="M222 143H213V152H222V143Z" fill="black"/>
<path d="M231 143H222V152H231V143Z" fill="black"/>
<path d="M240 143H231V152H240V143Z" fill="white"/>
<path d="M249 143H240V152H249V143Z" fill="black"/>
<path d="M258 143H249V152H258V143Z" fill="white"/>
<path d="M10 152H1V161H10V152Z" fill="white"/>
<path d="M19 152H10V161H19V152Z" fill="black"/>
<path d="M28 152H19V161H28V152Z" fill="black"/>
<path d="M37 152H28V161H37V152Z" fill="white"/>
<path d="M46 152H37V161H46V152Z" fill="white"/>
<path d="M55 152H46V161H55V152Z" fill="white"/>
<path d="M63 152H54V161H63V152Z" fill="white"/>
<path d="M72 152H63V161H72V152Z" fill="black"/>
<path d="M81 152H72V161H81V152Z" fill="white"/>
<path d="M90 152H81V161H90V152Z" fill="black"/>
<path d="M99 152H90V161H99V152Z" fill="black"/>
<path d="M108 152H99V161H108V152Z" fill="white"/>
<path d="M116 152H107V161H116V152Z" fill="white"/>
<path d="M125 152H116V161H125V152Z" fill="white"/>
<path d="M134 152H125V161H134V152Z" fill="black"/>
<path d="M143 152H134V161H143V152Z" fill="black"/>
<path d="M152 152H143V161H152V152Z" fill="black"/>
<path d="M161 152H152V161H161V152Z" fill="black"/>
<path d="M169 152H160V161H169V152Z" fill="black"/>
<path d="M178 152H169V161H178V152Z" fill="black"/>
<path d="M187 152H178V161H187V152Z" fill="black"/>
<path d="M196 152H187V161H196V152Z" fill="white"/>
<path d="M205 152H196V161H205V152Z" fill="black"/>
<path d="M214 152H205V161H214V152Z" fill="black"/>
<path d="M222 152H213V161H222V152Z" fill="white"/>
<path d="M231 152H222V161H231V152Z" fill="white"/>
<path d="M240 152H231V161H240V152Z" fill="black"/>
<path d="M249 152H240V161H249V152Z" fill="white"/>
<path d="M258 152H249V161H258V152Z" fill="white"/>
<path d="M10 160H1V169H10V160Z" fill="black"/>
<path d="M19 160H10V169H19V160Z" fill="white"/>
<path d="M28 160H19V169H28V160Z" fill="black"/>
<path d="M37 160H28V169H37V160Z" fill="black"/>
<path d="M46 160H37V169H46V160Z" fill="black"/>
<path d="M55 160H46V169H55V160Z" fill="black"/>
<path d="M63 160H54V169H63V160Z" fill="black"/>
<path d="M72 160H63V169H72V160Z" fill="black"/>
<path d="M81 160H72V169H81V160Z" fill="white"/>
<path d="M90 160H81V169H90V160Z" fill="white"/>
<path d="M99 160H90V169H99V160Z" fill="black"/>
<path d="M108 160H99V169H108V160Z" fill="white"/>
<path d="M116 160H107V169H116V160Z" fill="white"/>
<path d="M125 160H116V169H125V160Z" fill="white"/>
<path d="M134 160H125V169H134V160Z" fill="white"/>
<path d="M143 160H134V169H143V160Z" fill="white"/>
<path d="M152 160H143V169H152V160Z" fill="black"/>
<path d="M161 160H152V169H161V160Z" fill="black"/>
<path d="M169 160H160V169H169V160Z" fill="black"/>
<path d="M178 160H169V169H178V160Z" fill="black"/>
<path d="M187 160H178V169H187V160Z" fill="white"/>
<path d="M196 160H187V169H196V160Z" fill="white"/>
<path d="M205 160H196V169H205V160Z" fill="black"/>
<path d="M214 160H205V169H214V160Z" fill="black"/>
<path d="M222 160H213V169H222V160Z" fill="white"/>
<path d="M231 160H222V169H231V160Z" fill="white"/>
<path d="M240 160H231V169H240V160Z" fill="black"/>
<path d="M249 160H240V169H249V160Z" fill="white"/>
<path d="M258 160H249V169H258V160Z" fill="white"/>
<path d="M10 169H1V178H10V169Z" fill="white"/>
<path d="M19 169H10V178H19V169Z" fill="white"/>
<path d="M28 169H19V178H28V169Z" fill="black"/>
<path d="M37 169H28V178H37V169Z" fill="white"/>
<path d="M46 169H37V178H46V169Z" fill="white"/>
<path d="M55 169H46V178H55V169Z" fill="black"/>
<path d="M63 169H54V178H63V169Z" fill="white"/>
<path d="M72 169H63V178H72V169Z" fill="white"/>
<path d="M81 169H72V178H81V169Z" fill="black"/>
<path d="M90 169H81V178H90V169Z" fill="black"/>
<path d="M99 169H90V178H99V169Z" fill="black"/>
<path d="M108 169H99V178H108V169Z" fill="black"/>
<path d="M116 169H107V178H116V169Z" fill="black"/>
<path d="M125 169H116V178H125V169Z" fill="black"/>
<path d="M134 169H125V178H134V169Z" fill="black"/>
<path d="M143 169H134V178H143V169Z" fill="black"/>
<path d="M152 169H143V178H152V169Z" fill="black"/>
<path d="M161 169H152V178H161V169Z" fill="white"/>
<path d="M169 169H160V178H169V169Z" fill="white"/>
<path d="M178 169H169V178H178V169Z" fill="black"/>
<path d="M187 169H178V178H187V169Z" fill="white"/>
<path d="M196 169H187V178H196V169Z" fill="black"/>
<path d="M205 169H196V178H205V169Z" fill="black"/>
<path d="M214 169H205V178H214V169Z" fill="white"/>
<path d="M222 169H213V178H222V169Z" fill="black"/>
<path d="M231 169H222V178H231V169Z" fill="black"/>
<path d="M240 169H231V178H240V169Z" fill="black"/>
<path d="M249 169H240V178H249V169Z" fill="white"/>
<path d="M258 169H249V178H258V169Z" fill="black"/>
<path d="M10 178H1V187H10V178Z" fill="white"/>
<path d="M19 178H10V187H19V178Z" fill="black"/>
<path d="M28 178H19V187H28V178Z" fill="white"/>
<path d="M37 178H28V187H37V178Z" fill="black"/>
<path d="M46 178H37V187H46V178Z" fill="white"/>
<path d="M55 178H46V187H55V178Z" fill="black"/>
<path d="M63 178H54V187H63V178Z" fill="black"/>
<path d="M72 178H63V187H72V178Z" fill="white"/>
<path d="M81 178H72V187H81V178Z" fill="white"/>
<path d="M90 178H81V187H90V178Z" fill="black"/>
<path d="M99 178H90V187H99V178Z" fill="black"/>
<path d="M108 178H99V187H108V178Z" fill="black"/>
<path d="M116 178H107V187H116V178Z" fill="white"/>
<path d="M125 178H116V187H125V178Z" fill="black"/>
<path d="M134 178H125V187H134V178Z" fill="white"/>
<path d="M143 178H134V187H143V178Z" fill="black"/>
<path d="M152 178H143V187H152V178Z" fill="white"/>
<path d="M161 178H152V187H161V178Z" fill="black"/>
<path d="M169 178H160V187H169V178Z" fill="white"/>
<path d="M178 178H169V187H178V178Z" fill="white"/>
<path d="M187 178H178V187H187V178Z" fill="black"/>
<path d="M196 178H187V187H196V178Z" fill="black"/>
<path d="M205 178H196V187H205V178Z" fill="black"/>
<path d="M214 178H205V187H214V178Z" fill="black"/>
<path d="M222 178H213V187H222V178Z" fill="black"/>
<path d="M231 178H222V187H231V178Z" fill="black"/>
<path d="M240 178H231V187H240V178Z" fill="black"/>
<path d="M249 178H240V187H249V178Z" fill="white"/>
<path d="M258 178H249V187H258V178Z" fill="black"/>
<path d="M10 187H1V196H10V187Z" fill="white"/>
<path d="M19 187H10V196H19V187Z" fill="white"/>
<path d="M28 187H19V196H28V187Z" fill="white"/>
<path d="M37 187H28V196H37V187Z" fill="white"/>
<path d="M46 187H37V196H46V187Z" fill="white"/>
<path d="M55 187H46V196H55V187Z" fill="white"/>
<path d="M63 187H54V196H63V187Z" fill="white"/>
<path d="M72 187H63V196H72V187Z" fill="white"/>
<path d="M81 187H72V196H81V187Z" fill="black"/>
<path d="M90 187H81V196H90V187Z" fill="white"/>
<path d="M99 187H90V196H99V187Z" fill="black"/>
<path d="M108 187H99V196H108V187Z" fill="black"/>
<path d="M116 187H107V196H116V187Z" fill="white"/>
<path d="M125 187H116V196H125V187Z" fill="white"/>
<path d="M134 187H125V196H134V187Z" fill="white"/>
<path d="M143 187H134V196H143V187Z" fill="white"/>
<path d="M152 187H143V196H152V187Z" fill="black"/>
<path d="M161 187H152V196H161V187Z" fill="black"/>
<path d="M169 187H160V196H169V187Z" fill="black"/>
<path d="M178 187H169V196H178V187Z" fill="white"/>
<path d="M187 187H178V196H187V187Z" fill="black"/>
<path d="M196 187H187V196H196V187Z" fill="white"/>
<path d="M205 187H196V196H205V187Z" fill="white"/>
<path d="M214 187H205V196H214V187Z" fill="white"/>
<path d="M222 187H213V196H222V187Z" fill="black"/>
<path d="M231 187H222V196H231V187Z" fill="black"/>
<path d="M240 187H231V196H240V187Z" fill="white"/>
<path d="M249 187H240V196H249V187Z" fill="white"/>
<path d="M258 187H249V196H258V187Z" fill="black"/>
<path d="M10 196H1V205H10V196Z" fill="black"/>
<path d="M19 196H10V205H19V196Z" fill="black"/>
<path d="M28 196H19V205H28V196Z" fill="black"/>
<path d="M37 196H28V205H37V196Z" fill="black"/>
<path d="M46 196H37V205H46V196Z" fill="black"/>
<path d="M55 196H46V205H55V196Z" fill="black"/>
<path d="M63 196H54V205H63V196Z" fill="black"/>
<path d="M72 196H63V205H72V196Z" fill="white"/>
<path d="M81 196H72V205H81V196Z" fill="black"/>
<path d="M90 196H81V205H90V196Z" fill="white"/>
<path d="M99 196H90V205H99V196Z" fill="white"/>
<path d="M108 196H99V205H108V196Z" fill="white"/>
<path d="M116 196H107V205H116V196Z" fill="white"/>
<path d="M125 196H116V205H125V196Z" fill="black"/>
<path d="M134 196H125V205H134V196Z" fill="black"/>
<path d="M143 196H134V205H143V196Z" fill="black"/>
<path d="M152 196H143V205H152V196Z" fill="white"/>
<path d="M161 196H152V205H161V196Z" fill="white"/>
<path d="M169 196H160V205H169V196Z" fill="black"/>
<path d="M178 196H169V205H178V196Z" fill="black"/>
<path d="M187 196H178V205H187V196Z" fill="black"/>
<path d="M196 196H187V205H196V196Z" fill="white"/>
<path d="M205 196H196V205H205V196Z" fill="black"/>
<path d="M214 196H205V205H214V196Z" fill="white"/>
<path d="M222 196H213V205H222V196Z" fill="black"/>
<path d="M231 196H222V205H231V196Z" fill="white"/>
<path d="M240 196H231V205H240V196Z" fill="black"/>
<path d="M249 196H240V205H249V196Z" fill="black"/>
<path d="M258 196H249V205H258V196Z" fill="white"/>
<path d="M10 205H1V214H10V205Z" fill="black"/>
<path d="M19 205H10V214H19V205Z" fill="white"/>
<path d="M28 205H19V214H28V205Z" fill="white"/>
<path d="M37 205H28V214H37V205Z" fill="white"/>
<path d="M46 205H37V214H46V205Z" fill="white"/>
<path d="M55 205H46V214H55V205Z" fill="white"/>
<path d="M63 205H54V214H63V205Z" fill="black"/>
<path d="M72 205H63V214H72V205Z" fill="white"/>
<path d="M81 205H72V214H81V205Z" fill="white"/>
<path d="M90 205H81V214H90V205Z" fill="black"/>
<path d="M99 205H90V214H99V205Z" fill="black"/>
<path d="M108 205H99V214H108V205Z" fill="white"/>
<path d="M116 205H107V214H116V205Z" fill="black"/>
<path d="M125 205H116V214H125V205Z" fill="black"/>
<path d="M134 205H125V214H134V205Z" fill="black"/>
<path d="M143 205H134V214H143V205Z" fill="white"/>
<path d="M152 205H143V214H152V205Z" fill="white"/>
<path d="M161 205H152V214H161V205Z" fill="black"/>
<path d="M169 205H160V214H169V205Z" fill="white"/>
<path d="M178 205H169V214H178V205Z" fill="white"/>
<path d="M187 205H178V214H187V205Z" fill="black"/>
<path d="M196 205H187V214H196V205Z" fill="white"/>
<path d="M205 205H196V214H205V205Z" fill="white"/>
<path d="M214 205H205V214H214V205Z" fill="white"/>
<path d="M222 205H213V214H222V205Z" fill="black"/>
<path d="M231 205H222V214H231V205Z" fill="white"/>
<path d="M240 205H231V214H240V205Z" fill="white"/>
<path d="M249 205H240V214H249V205Z" fill="white"/>
<path d="M258 205H249V214H258V205Z" fill="black"/>
<path d="M10 213H1V222H10V213Z" fill="black"/>
<path d="M19 213H10V222H19V213Z" fill="white"/>
<path d="M28 213H19V222H28V213Z" fill="black"/>
<path d="M37 213H28V222H37V213Z" fill="black"/>
<path d="M46 213H37V222H46V213Z" fill="black"/>
<path d="M55 213H46V222H55V213Z" fill="white"/>
<path d="M63 213H54V222H63V213Z" fill="black"/>
<path d="M72 213H63V222H72V213Z" fill="white"/>
<path d="M81 213H72V222H81V213Z" fill="white"/>
<path d="M90 213H81V222H90V213Z" fill="white"/>
<path d="M99 213H90V222H99V213Z" fill="white"/>
<path d="M108 213H99V222H108V213Z" fill="white"/>
<path d="M116 213H107V222H116V213Z" fill="black"/>
<path d="M125 213H116V222H125V213Z" fill="white"/>
<path d="M134 213H125V222H134V213Z" fill="white"/>
<path d="M143 213H134V222H143V213Z" fill="black"/>
<path d="M152 213H143V222H152V213Z" fill="black"/>
<path d="M161 213H152V222H161V213Z" fill="white"/>
<path d="M169 213H160V222H169V213Z" fill="black"/>
<path d="M178 213H169V222H178V213Z" fill="white"/>
<path d="M187 213H178V222H187V213Z" fill="black"/>
<path d="M196 213H187V222H196V213Z" fill="black"/>
<path d="M205 213H196V222H205V213Z" fill="black"/>
<path d="M214 213H205V222H214V213Z" fill="black"/>
<path d="M222 213H213V222H222V213Z" fill="black"/>
<path d="M231 213H222V222H231V213Z" fill="black"/>
<path d="M240 213H231V222H240V213Z" fill="black"/>
<path d="M249 213H240V222H249V213Z" fill="white"/>
<path d="M258 213H249V222H258V213Z" fill="white"/>
<path d="M10 222H1V231H10V222Z" fill="black"/>
<path d="M19 222H10V231H19V222Z" fill="white"/>
<path d="M28 222H19V231H28V222Z" fill="black"/>
<path d="M37 222H28V231H37V222Z" fill="black"/>
<path d="M46 222H37V231H46V222Z" fill="black"/>
<path d="M55 222H46V231H55V222Z" fill="white"/>
<path d="M63 222H54V231H63V222Z" fill="black"/>
<path d="M72 222H63V231H72V222Z" fill="white"/>
<path d="M81 222H72V231H81V222Z" fill="black"/>
<path d="M90 222H81V231H90V222Z" fill="black"/>
<path d="M99 222H90V231H99V222Z" fill="black"/>
<path d="M108 222H99V231H108V222Z" fill="white"/>
<path d="M116 222H107V231H116V222Z" fill="white"/>
<path d="M125 222H116V231H125V222Z" fill="white"/>
<path d="M134 222H125V231H134V222Z" fill="white"/>
<path d="M143 222H134V231H143V222Z" fill="white"/>
<path d="M152 222H143V231H152V222Z" fill="white"/>
<path d="M161 222H152V231H161V222Z" fill="white"/>
<path d="M169 222H160V231H169V222Z" fill="black"/>
<path d="M178 222H169V231H178V222Z" fill="black"/>
<path d="M187 222H178V231H187V222Z" fill="white"/>
<path d="M196 222H187V231H196V222Z" fill="white"/>
<path d="M205 222H196V231H205V222Z" fill="white"/>
<path d="M214 222H205V231H214V222Z" fill="white"/>
<path d="M222 222H213V231H222V222Z" fill="black"/>
<path d="M231 222H222V231H231V222Z" fill="white"/>
<path d="M240 222H231V231H240V222Z" fill="black"/>
<path d="M249 222H240V231H249V222Z" fill="black"/>
<path d="M258 222H249V231H258V222Z" fill="white"/>
<path d="M10 231H1V240H10V231Z" fill="black"/>
<path d="M19 231H10V240H19V231Z" fill="white"/>
<path d="M28 231H19V240H28V231Z" fill="black"/>
<path d="M37 231H28V240H37V231Z" fill="black"/>
<path d="M46 231H37V240H46V231Z" fill="black"/>
<path d="M55 231H46V240H55V231Z" fill="white"/>
<path d="M63 231H54V240H63V231Z" fill="black"/>
<path d="M72 231H63V240H72V231Z" fill="white"/>
<path d="M81 231H72V240H81V231Z" fill="black"/>
<path d="M90 231H81V240H90V231Z" fill="black"/>
<path d="M99 231H90V240H99V231Z" fill="white"/>
<path d="M108 231H99V240H108V231Z" fill="white"/>
<path d="M116 231H107V240H116V231Z" fill="black"/>
<path d="M125 231H116V240H125V231Z" fill="white"/>
<path d="M134 231H125V240H134V231Z" fill="black"/>
<path d="M143 231H134V240H143V231Z" fill="black"/>
<path d="M152 231H143V240H152V231Z" fill="white"/>
<path d="M161 231H152V240H161V231Z" fill="black"/>
<path d="M169 231H160V240H169V231Z" fill="black"/>
<path d="M178 231H169V240H178V231Z" fill="white"/>
<path d="M187 231H178V240H187V231Z" fill="black"/>
<path d="M196 231H187V240H196V231Z" fill="white"/>
<path d="M205 231H196V240H205V231Z" fill="white"/>
<path d="M214 231H205V240H214V231Z" fill="black"/>
<path d="M222 231H213V240H222V231Z" fill="white"/>
<path d="M231 231H222V240H231V231Z" fill="white"/>
<path d="M240 231H231V240H240V231Z" fill="black"/>
<path d="M249 231H240V240H249V231Z" fill="white"/>
<path d="M258 231H249V240H258V231Z" fill="black"/>
<path d="M10 240H1V249H10V240Z" fill="black"/>
<path d="M19 240H10V249H19V240Z" fill="white"/>
<path d="M28 240H19V249H28V240Z" fill="white"/>
<path d="M37 240H28V249H37V240Z" fill="white"/>
<path d="M46 240H37V249H46V240Z" fill="white"/>
<path d="M55 240H46V249H55V240Z" fill="white"/>
<path d="M63 240H54V249H63V240Z" fill="black"/>
<path d="M72 240H63V249H72V240Z" fill="white"/>
<path d="M81 240H72V249H81V240Z" fill="white"/>
<path d="M90 240H81V249H90V240Z" fill="black"/>
<path d="M99 240H90V249H99V240Z" fill="black"/>
<path d="M108 240H99V249H108V240Z" fill="black"/>
<path d="M116 240H107V249H116V240Z" fill="black"/>
<path d="M125 240H116V249H125V240Z" fill="black"/>
<path d="M134 240H125V249H134V240Z" fill="white"/>
<path d="M143 240H134V249H143V240Z" fill="black"/>
<path d="M152 240H143V249H152V240Z" fill="black"/>
<path d="M161 240H152V249H161V240Z" fill="white"/>
<path d="M169 240H160V249H169V240Z" fill="white"/>
<path d="M178 240H169V249H178V240Z" fill="black"/>
<path d="M187 240H178V249H187V240Z" fill="white"/>
<path d="M196 240H187V249H196V240Z" fill="black"/>
<path d="M205 240H196V249H205V240Z" fill="white"/>
<path d="M214 240H205V249H214V240Z" fill="white"/>
<path d="M222 240H213V249H222V240Z" fill="black"/>
<path d="M231 240H222V249H231V240Z" fill="black"/>
<path d="M240 240H231V249H240V240Z" fill="white"/>
<path d="M249 240H240V249H249V240Z" fill="black"/>
<path d="M258 240H249V249H258V240Z" fill="white"/>
<path d="M10 249H1V258H10V249Z" fill="black"/>
<path d="M19 249H10V258H19V249Z" fill="black"/>
<path d="M28 249H19V258H28V249Z" fill="black"/>
<path d="M37 249H28V258H37V249Z" fill="black"/>
<path d="M46 249H37V258H46V249Z" fill="black"/>
<path d="M55 249H46V258H55V249Z" fill="black"/>
<path d="M63 249H54V258H63V249Z" fill="black"/>
<path d="M72 249H63V258H72V249Z" fill="white"/>
<path d="M81 249H72V258H81V249Z" fill="white"/>
<path d="M90 249H81V258H90V249Z" fill="white"/>
<path d="M99 249H90V258H99V249Z" fill="black"/>
<path d="M108 249H99V258H108V249Z" fill="white"/>
<path d="M116 249H107V258H116V249Z" fill="black"/>
<path d="M125 249H116V258H125V249Z" fill="black"/>
<path d="M134 249H125V258H134V249Z" fill="black"/>
<path d="M143 249H134V258H143V249Z" fill="black"/>
<path d="M152 249H143V258H152V249Z" fill="white"/>
<path d="M161 249H152V258H161V249Z" fill="black"/>
<path d="M169 249H160V258H169V249Z" fill="black"/>
<path d="M178 249H169V258H178V249Z" fill="white"/>
<path d="M187 249H178V258H187V249Z" fill="black"/>
<path d="M196 249H187V258H196V249Z" fill="black"/>
<path d="M205 249H196V258H205V249Z" fill="white"/>
<path d="M214 249H205V258H214V249Z" fill="black"/>
<path d="M222 249H213V258H222V249Z" fill="white"/>
<path d="M231 249H222V258H231V249Z" fill="white"/>
<path d="M240 249H231V258H240V249Z" fill="white"/>
<path d="M249 249H240V258H249V249Z" fill="black"/>
<path d="M258 249H249V258H258V249Z" fill="white"/>
<path d="M258 0H0V1H258V0Z" fill="white"/>
<path d="M1 1H0V257H1V1Z" fill="white"/>
<path d="M258 1H257V257H258V1Z" fill="white"/>
<path d="M258 257H0V258H258V257Z" fill="white"/>
</g>
<defs>
<clipPath id="clip0_3312_851">
<rect width="258" height="258" fill="red"/>
</clipPath>
</defs>
</svg>
